<svg xmlns="http://www.w3.org/2000/svg" width="45.037" height="45.037" viewBox="0 0 45.037 45.037">
  <path id="New_Text_Document_4_" data-name="New Text Document (4)" d="M20.514,3H5.5A2.5,2.5,0,0,0,3,5.5V20.514a2.5,2.5,0,0,0,2.5,2.5H20.514a2.5,2.5,0,0,0,2.5-2.5V5.5A2.5,2.5,0,0,0,20.514,3Zm-2.5,15.012H8V8H18.012ZM45.535,3H30.523a2.5,2.5,0,0,0-2.5,2.5V20.514a2.5,2.5,0,0,0,2.5,2.5H45.535a2.5,2.5,0,0,0,2.5-2.5V5.5A2.5,2.5,0,0,0,45.535,3Zm-2.5,15.012H33.025V8H43.033ZM20.514,28.021H5.5a2.5,2.5,0,0,0-2.5,2.5V45.535a2.5,2.5,0,0,0,2.5,2.5H20.514a2.5,2.5,0,0,0,2.5-2.5V30.523A2.5,2.5,0,0,0,20.514,28.021Zm-2.5,15.012H8V33.025H18.012ZM38.029,28.021A10.008,10.008,0,1,0,48.037,38.029,10.018,10.018,0,0,0,38.029,28.021Zm0,15.012a5,5,0,1,1,5-5A5.009,5.009,0,0,1,38.029,43.033Z" transform="translate(-3 -3)" stroke="#000" stroke-width="0"/>
</svg>
