<svg xmlns="http://www.w3.org/2000/svg" width="45.833" height="45.834" viewBox="0 0 45.833 45.834">
  <path id="New_Text_Document_4_" data-name="New Text Document (4)" d="M4.291,27.209H6.583V43.251a4.588,4.588,0,0,0,4.583,4.583h27.5a4.588,4.588,0,0,0,4.583-4.583V27.209h2.292a2.292,2.292,0,0,0,1.62-3.912L26.537,2.672a2.289,2.289,0,0,0-3.24,0L2.671,23.3a2.292,2.292,0,0,0,1.62,3.912ZM20.333,43.251V31.792H29.5V43.251ZM24.917,7.532l13.75,13.75v10.51l0,11.458H34.084V31.792A4.588,4.588,0,0,0,29.5,27.209H20.333a4.588,4.588,0,0,0-4.583,4.583V43.251H11.167V21.283Z" transform="translate(-2 -2)" stroke="#000" stroke-width="0"/>
</svg>
