<svg xmlns="http://www.w3.org/2000/svg" width="94.437" height="94.437" viewBox="0 0 94.437 94.437">
  <path id="Icon_awesome-coins" data-name="Icon awesome-coins" d="M0,74.757v7.876c0,6.511,15.863,11.8,35.414,11.8s35.414-5.294,35.414-11.8V74.757c-7.618,5.367-21.543,7.876-35.414,7.876S7.618,80.124,0,74.757ZM59.023,23.609c19.551,0,35.414-5.294,35.414-11.8S78.575,0,59.023,0,23.609,5.294,23.609,11.8,39.472,23.609,59.023,23.609ZM0,55.408v9.517c0,6.511,15.863,11.8,35.414,11.8s35.414-5.294,35.414-11.8V55.408c-7.618,6.271-21.562,9.517-35.414,9.517S7.618,61.679,0,55.408Zm76.73,2.029C87.3,55.39,94.437,51.59,94.437,47.219V39.343c-4.279,3.025-10.569,5.091-17.707,6.363ZM35.414,29.512C15.863,29.512,0,36.115,0,44.267S15.863,59.023,35.414,59.023s35.414-6.6,35.414-14.756S54.965,29.512,35.414,29.512ZM75.863,39.9c11.067-1.992,18.574-5.9,18.574-10.384V21.636c-6.548,4.63-17.8,7.12-29.641,7.71C70.238,31.983,74.24,35.525,75.863,39.9Z" fill="#8bc541"/>
</svg>
