<svg xmlns="http://www.w3.org/2000/svg" width="173.904" height="89.042" viewBox="0 0 173.904 89.042">
  <path id="Icon_metro-discout" data-name="Icon metro-discout" d="M176.415,54.192c0,11.873-6.856,21.942-17.042,25.937V93.148a5.564,5.564,0,0,1-5.56,5.565H25.118a5.562,5.562,0,0,1-5.565-5.565V80.129c-10.192-4-17.042-14.064-17.042-25.937S9.367,32.25,19.558,28.255V15.236a5.559,5.559,0,0,1,5.565-5.565h128.7a5.561,5.561,0,0,1,5.56,5.565V28.255c10.186,4,17.036,14.064,17.036,25.937Zm-106.776,0H47.378v5.565h22.26V54.192ZM96.067,35.217a9.329,9.329,0,0,0-12.9,0q-2.355,2.581-2.358,7.945,0,5.389,2.358,7.973c1.564,1.721,2.688,2.581,5.47,2.581,2.682,0,5.861-.86,7.431-2.581s2.352-4.381,2.352-7.973q-.008-5.364-2.358-7.945ZM115,31.758,86.446,76.581H92.1l28.412-44.823H115Zm8.89,25.713a9.351,9.351,0,0,0-12.9,0q-2.347,2.59-2.347,7.945,0,5.389,2.347,7.973a8.371,8.371,0,0,0,6.526,2.587,8.2,8.2,0,0,0,6.381-2.587q2.347-2.581,2.352-7.973-.008-5.364-2.358-7.945Zm-6.515,14.2a2.153,2.153,0,0,1-1.883-1.011q-.9-1.316-.9-5.23t.9-5.252a2.131,2.131,0,0,1,1.883-.989,2.2,2.2,0,0,1,1.911.989c.581.894.872,2.648.872,5.252s-.3,4.358-.9,5.252A2.119,2.119,0,0,1,117.372,71.669ZM89.552,49.415A2.146,2.146,0,0,1,87.669,48.4q-.9-1.316-.9-5.23t.9-5.252a2.126,2.126,0,0,1,1.883-.983,2.2,2.2,0,0,1,1.911.983c.581.894.872,2.648.872,5.252s-.3,4.358-.9,5.252A2.137,2.137,0,0,1,89.552,49.415Z" transform="translate(-2.511 -9.671)" fill="#8bc541"/>
</svg>
