<svg xmlns="http://www.w3.org/2000/svg" width="32.491" height="32.49" viewBox="0 0 32.491 32.49">
  <path id="Icon_awesome-linkedin" data-name="Icon awesome-linkedin" d="M30.17,2.25H2.314A2.331,2.331,0,0,0,0,4.592V32.4A2.331,2.331,0,0,0,2.314,34.74H30.17A2.337,2.337,0,0,0,32.491,32.4V4.592A2.337,2.337,0,0,0,30.17,2.25ZM9.82,30.1H5V14.593H9.827V30.1ZM7.412,12.476A2.792,2.792,0,1,1,10.2,9.684a2.793,2.793,0,0,1-2.792,2.792ZM27.871,30.1H23.055V22.556c0-1.8-.036-4.112-2.5-4.112-2.509,0-2.894,1.958-2.894,3.982V30.1H12.844V14.593h4.62v2.118h.065a5.072,5.072,0,0,1,4.562-2.5c4.874,0,5.78,3.213,5.78,7.39Z" transform="translate(0 -2.25)" fill="#fff"/>
</svg>
