<svg xmlns="http://www.w3.org/2000/svg" width="46.926" height="44.975" viewBox="0 0 46.926 44.975">
  <g id="Icon_feather-shopping-cart" data-name="Icon feather-shopping-cart" transform="translate(0.5 0.5)">
    <path id="Path_3" data-name="Path 3" d="M15.9,31.951A1.951,1.951,0,1,1,13.951,30,1.951,1.951,0,0,1,15.9,31.951Z" transform="translate(3.158 8.572)" fill="none" stroke="#000" stroke-linecap="round" stroke-linejoin="round" stroke-width="4"/>
    <path id="Path_4" data-name="Path 4" d="M32.4,31.951A1.951,1.951,0,1,1,30.451,30,1.951,1.951,0,0,1,32.4,31.951Z" transform="translate(8.121 8.572)" fill="none" stroke="#000" stroke-linecap="round" stroke-linejoin="round" stroke-width="4"/>
    <path id="Path_5" data-name="Path 5" d="M1.5,1.5H9.3l5.229,26.126a3.9,3.9,0,0,0,3.9,3.141H37.4a3.9,3.9,0,0,0,3.9-3.141l3.122-16.37H11.256" fill="none" stroke="#000" stroke-linecap="round" stroke-linejoin="round" stroke-width="4"/>
  </g>
</svg>
