<svg xmlns="http://www.w3.org/2000/svg" width="46.209" height="32.49" viewBox="0 0 46.209 32.49">
  <path id="Icon_awesome-youtube" data-name="Icon awesome-youtube" d="M46.294,9.584a5.806,5.806,0,0,0-4.085-4.112C38.6,4.5,24.155,4.5,24.155,4.5S9.7,4.5,6.1,5.472A5.806,5.806,0,0,0,2.016,9.584C1.05,13.211,1.05,20.778,1.05,20.778s0,7.567.966,11.194A5.72,5.72,0,0,0,6.1,36.019c3.6.972,18.054.972,18.054.972s14.45,0,18.054-.972a5.72,5.72,0,0,0,4.085-4.046c.966-3.627.966-11.194.966-11.194s0-7.567-.966-11.194ZM19.429,27.649V13.907l12.077,6.871-12.077,6.87Z" transform="translate(-1.05 -4.5)" fill="#fff"/>
</svg>
