<svg xmlns="http://www.w3.org/2000/svg" width="40.004" height="32.49" viewBox="0 0 40.004 32.49">
  <path id="Icon_awesome-twitter" data-name="Icon awesome-twitter" d="M35.892,11.478c.025.355.025.711.025,1.066,0,10.839-8.25,23.327-23.327,23.327A23.169,23.169,0,0,1,0,32.191a16.961,16.961,0,0,0,1.98.1,16.42,16.42,0,0,0,10.179-3.5A8.213,8.213,0,0,1,4.493,23.1a10.34,10.34,0,0,0,1.548.127A8.672,8.672,0,0,0,8.2,22.951,8.2,8.2,0,0,1,1.624,14.9v-.1A8.257,8.257,0,0,0,5.33,15.844,8.211,8.211,0,0,1,2.792,4.878,23.305,23.305,0,0,0,19.7,13.458a9.255,9.255,0,0,1-.2-1.878A8.207,8.207,0,0,1,33.684,5.97a16.142,16.142,0,0,0,5.2-1.98,8.177,8.177,0,0,1-3.6,4.518A16.436,16.436,0,0,0,40,7.239a17.624,17.624,0,0,1-4.112,4.239Z" transform="translate(0 -3.381)" fill="#fff"/>
</svg>
