<svg xmlns="http://www.w3.org/2000/svg" width="32.498" height="32.491" viewBox="0 0 32.498 32.491">
  <path id="Icon_awesome-instagram" data-name="Icon awesome-instagram" d="M16.248,10.153a8.33,8.33,0,1,0,8.33,8.33A8.317,8.317,0,0,0,16.248,10.153Zm0,13.746a5.416,5.416,0,1,1,5.416-5.416A5.426,5.426,0,0,1,16.248,23.9ZM26.862,9.812a1.943,1.943,0,1,1-1.943-1.943A1.938,1.938,0,0,1,26.862,9.812Zm5.517,1.972a9.615,9.615,0,0,0-2.625-6.808,9.679,9.679,0,0,0-6.808-2.624c-2.683-.152-10.723-.152-13.405,0A9.665,9.665,0,0,0,2.733,4.969,9.647,9.647,0,0,0,.109,11.777c-.152,2.682-.152,10.723,0,13.405A9.615,9.615,0,0,0,2.733,31.99a9.691,9.691,0,0,0,6.808,2.624c2.683.152,10.723.152,13.405,0a9.616,9.616,0,0,0,6.808-2.624,9.679,9.679,0,0,0,2.625-6.808c.152-2.682.152-10.715,0-13.4ZM28.913,28.06a5.483,5.483,0,0,1-3.089,3.088c-2.139.848-7.214.653-9.577.653S8.8,31.99,6.67,31.149A5.483,5.483,0,0,1,3.582,28.06c-.848-2.139-.653-7.214-.653-9.577s-.189-7.446.653-9.577A5.483,5.483,0,0,1,6.67,5.817c2.139-.848,7.214-.652,9.577-.652s7.446-.188,9.577.652a5.483,5.483,0,0,1,3.089,3.088c.848,2.139.653,7.214.653,9.577S29.762,25.929,28.913,28.06Z" transform="translate(0.005 -2.238)" fill="#fff"/>
</svg>
