<svg id="New_Text_Document_4_" data-name="New Text Document (4)" xmlns="http://www.w3.org/2000/svg" width="65.061" height="65.06" viewBox="0 0 65.061 65.06">
  <path id="Path_12" data-name="Path 12" d="M0,0H65.061V65.06H0Z" fill="none" stroke="#000" stroke-width="0"/>
  <path id="Path_13" data-name="Path 13" d="M6.422,9.422h48.8V4H6.422A5.438,5.438,0,0,0,1,9.422v32.53a5.438,5.438,0,0,0,5.422,5.422H17.265V41.952H6.422ZM33.53,25.687H22.687v4.825a8.035,8.035,0,0,0,0,12.036v4.825H33.53V42.548a8.036,8.036,0,0,0,0-12.036ZM28.109,40.6a4.066,4.066,0,1,1,4.066-4.066A4.061,4.061,0,0,1,28.109,40.6ZM57.928,14.843H41.663a2.915,2.915,0,0,0-2.711,2.711V44.663a2.915,2.915,0,0,0,2.711,2.711H57.928a2.915,2.915,0,0,0,2.711-2.711V17.554A2.915,2.915,0,0,0,57.928,14.843ZM55.217,41.952H44.374V20.265H55.217Z" transform="translate(1.711 6.843)" stroke="#000" stroke-width="0"/>
</svg>
